<svg width="70" height="104" viewBox="0 0 70 104" fill="none" xmlns="http://www.w3.org/2000/svg">
<g filter="url(#filter0_di)">
<path d="M4.04364 48.1611V0.755163H9.36471H14.6858V48.1611V95.567H9.36471H4.04364V48.1611ZM19.4828 0.737526L23.3527 0.683899L23.393 23.4906C23.4183 37.7845 23.7471 46.2261 24.3467 46.2261C25.7451 46.2261 29.983 39.4664 32.5604 33.1248L34.805 27.6021L36.7482 31.9952C39.0698 37.2436 42.4234 39.7004 46.69 39.2784C51.7846 38.7746 53.6826 35.1937 54.1585 25.1882C54.8399 10.8601 52.0925 4.7458 44.6391 4.00346C39.3616 3.47783 36.943 4.75498 38.4796 7.25605C39.0616 8.20347 40.1369 9.94381 40.8691 11.1235C42.0439 13.0162 41.9649 13.5848 40.1975 15.9608C37.5925 19.4627 34.465 19.8781 31.5218 17.1132C28.3102 14.096 28.528 10.2925 32.1486 6.16896C39.9313 -2.69507 55.4964 -0.440889 62.809 10.6093C65.1391 14.1302 65.4754 15.5722 65.4586 21.9688C65.4377 29.9314 64.0299 33.7085 59.5261 37.8846C56.0579 41.1006 49.8084 42.7113 43.9338 41.9033C39.3021 41.2663 39.0906 41.3444 37.1511 44.4076C35.1898 47.5052 35.1851 47.6393 36.9152 51.0095C38.6813 54.4496 38.6813 54.4496 46.345 54.4496C53.2994 54.4496 54.3477 54.7078 57.6706 57.2388C70.032 66.6544 67.8869 87.2424 53.8682 93.7328C43.6684 98.4552 29.1978 92.7016 29.1978 83.9237C29.1978 80.4215 32.218 77.1851 35.4863 77.1851C38.2075 77.1851 41.7749 80.2561 41.7749 82.5987C41.7749 83.4477 40.8636 85.4222 39.7498 86.9864C37.2221 90.5362 38.5417 92.6646 43.2703 92.6646C47.4542 92.6646 52.0659 88.7633 53.3508 84.1371C54.6291 79.5345 54.624 68.045 53.3411 63.4272C50.8432 54.4329 40.14 54.9028 36.7948 64.1536C35.601 67.455 34.0355 68.6727 34.034 66.3011C34.0324 63.9207 28.4362 53.4377 25.9385 51.1367L23.393 48.7913L23.4434 74.0939L23.3527 95.8895H19.4828V0.737526V0.737526Z" fill="black"/>
</g>
<defs>
<filter id="filter0_di" x="0.0436401" y="0.683899" width="69.7436" height="103.206" filterUnits="userSpaceOnUse" color-interpolation-filters="sRGB">
<feFlood flood-opacity="0" result="BackgroundImageFix"/>
<feColorMatrix in="SourceAlpha" type="matrix" values="0 0 0 0 0 0 0 0 0 0 0 0 0 0 0 0 0 0 127 0"/>
<feOffset dy="4"/>
<feGaussianBlur stdDeviation="2"/>
<feColorMatrix type="matrix" values="0 0 0 0 0 0 0 0 0 0 0 0 0 0 0 0 0 0 0.25 0"/>
<feBlend mode="normal" in2="BackgroundImageFix" result="effect1_dropShadow"/>
<feBlend mode="normal" in="SourceGraphic" in2="effect1_dropShadow" result="shape"/>
<feColorMatrix in="SourceAlpha" type="matrix" values="0 0 0 0 0 0 0 0 0 0 0 0 0 0 0 0 0 0 127 0" result="hardAlpha"/>
<feOffset dy="4"/>
<feGaussianBlur stdDeviation="3.5"/>
<feComposite in2="hardAlpha" operator="arithmetic" k2="-1" k3="1"/>
<feColorMatrix type="matrix" values="0 0 0 0 1 0 0 0 0 1 0 0 0 0 1 0 0 0 0.19 0"/>
<feBlend mode="normal" in2="shape" result="effect2_innerShadow"/>
</filter>
</defs>
</svg>
