<svg width="49" height="102" viewBox="0 0 49 102" fill="none" xmlns="http://www.w3.org/2000/svg">
<g filter="url(#filter0_di)">
<path d="M19.2871 56.434C19.2871 60.2951 16.157 63.4252 12.2958 63.4252C8.43467 63.4252 5.30457 60.2951 5.30457 56.434C5.30457 52.5728 8.43467 49.4427 12.2958 49.4427C16.157 49.4427 19.2871 52.5728 19.2871 56.434Z" fill="black" stroke="black" stroke-width="1.01745"/>
<path d="M17.8705 92.9041C17.8705 91.9241 29.5611 51.4969 29.5611 51.4969" stroke="black" stroke-width="3"/>
<path d="M11.8523 62.3906C17.3215 62.765 27.5717 61.381 29.4211 51.8819C27.0653 55.5954 26.9818 62.8305 13.2852 59.6523" stroke="black" stroke-width="3"/>
<path d="M26.0461 32.4356C26.0461 36.2968 22.9161 39.4269 19.0549 39.4269C15.1937 39.4269 12.0636 36.2968 12.0636 32.4356C12.0636 28.5744 15.1937 25.4443 19.0549 25.4443C22.9161 25.4443 26.0461 28.5744 26.0461 32.4356Z" fill="black" stroke="black" stroke-width="1.01745"/>
<path d="M29.4982 51.8425C29.4982 50.8625 36.3201 27.4985 36.3201 27.4985" stroke="black" stroke-width="3"/>
<path d="M18.6113 38.3922C24.0805 38.7667 34.3308 37.3827 36.1802 27.8835C33.8243 31.5971 33.7408 38.8322 20.0443 35.654" stroke="black" stroke-width="3"/>
<path d="M32.7961 8.40474C32.7961 12.2659 29.6661 15.396 25.8049 15.396C21.9437 15.396 18.8136 12.2659 18.8136 8.40474C18.8136 4.54357 21.9437 1.41346 25.8049 1.41346C29.6661 1.41346 32.7961 4.54357 32.7961 8.40474Z" fill="black" stroke="black" stroke-width="1.01745"/>
<path d="M36.2482 27.8117C36.2482 26.8316 43.0701 3.46763 43.0701 3.46763" stroke="black" stroke-width="3"/>
<path d="M25.3613 14.3614C30.8305 14.7358 41.0808 13.3518 42.9302 3.85266C40.5743 7.5662 40.4908 14.8013 26.7943 11.6231" stroke="black" stroke-width="3"/>
</g>
<defs>
<filter id="filter0_di" x="0.795898" y="0.904741" width="47.714" height="100.179" filterUnits="userSpaceOnUse" color-interpolation-filters="sRGB">
<feFlood flood-opacity="0" result="BackgroundImageFix"/>
<feColorMatrix in="SourceAlpha" type="matrix" values="0 0 0 0 0 0 0 0 0 0 0 0 0 0 0 0 0 0 127 0"/>
<feOffset dy="4"/>
<feGaussianBlur stdDeviation="2"/>
<feColorMatrix type="matrix" values="0 0 0 0 0 0 0 0 0 0 0 0 0 0 0 0 0 0 0.25 0"/>
<feBlend mode="normal" in2="BackgroundImageFix" result="effect1_dropShadow"/>
<feBlend mode="normal" in="SourceGraphic" in2="effect1_dropShadow" result="shape"/>
<feColorMatrix in="SourceAlpha" type="matrix" values="0 0 0 0 0 0 0 0 0 0 0 0 0 0 0 0 0 0 127 0" result="hardAlpha"/>
<feOffset dy="4"/>
<feGaussianBlur stdDeviation="3.5"/>
<feComposite in2="hardAlpha" operator="arithmetic" k2="-1" k3="1"/>
<feColorMatrix type="matrix" values="0 0 0 0 1 0 0 0 0 1 0 0 0 0 1 0 0 0 0.19 0"/>
<feBlend mode="normal" in2="shape" result="effect2_innerShadow"/>
</filter>
</defs>
</svg>
