<svg width="29" height="30" viewBox="0 0 29 30" fill="none" xmlns="http://www.w3.org/2000/svg">
<g filter="url(#filter0_di)">
<path d="M4.84534 1.06102C4.70074 1.13682 4.56931 1.2479 4.45104 1.39399C4.33277 1.54008 4.25389 1.68607 4.2145 1.83206C4.23536 2.19425 4.33428 3.23983 4.51237 4.96883C4.69057 6.69786 4.8249 7.77848 4.91544 8.21072C5.06732 8.82989 5.53461 9.13364 6.31734 9.12198C6.95985 9.12598 7.60242 9.18787 8.24496 9.30595C8.88746 9.42422 9.45994 9.57323 9.96229 9.75282C10.2573 9.86674 10.561 10.0245 10.8735 10.226C11.1861 10.4275 11.4197 10.6203 11.5745 10.8043L11.7848 11.0146L11.5044 11.2249C10.9947 11.7214 10.2792 12.1128 9.3577 12.399C8.43627 12.6852 7.42278 12.8313 6.31732 12.8371C5.53461 12.8252 5.0673 13.1291 4.91542 13.7483C4.82468 14.1835 4.69054 15.2758 4.51234 17.0253C4.33414 18.7747 4.23492 19.832 4.21448 20.1971C4.26234 20.3504 4.37663 20.5169 4.55623 20.6965C4.73583 20.8761 4.90236 20.99 5.05563 21.0382C5.45132 21.0152 6.5174 20.9039 8.25372 20.7053C9.99003 20.5066 11.0736 20.3606 11.5044 20.2672C11.849 20.1794 12.0885 20.0043 12.2229 19.7415C12.3572 19.4786 12.4215 19.0229 12.4157 18.3746C12.4526 17.8431 12.5194 17.329 12.6172 16.8325C12.7149 16.336 12.8348 15.892 12.9764 15.5007C13.0903 15.1692 13.248 14.8334 13.4496 14.4931C13.6511 14.1528 13.8439 13.9045 14.0279 13.7483L14.2382 13.538L14.4485 13.7483C14.6324 13.9046 14.8252 14.1528 15.0267 14.4931C15.2283 14.8333 15.3859 15.1692 15.4999 15.5007C15.6415 15.8921 15.7613 16.3359 15.8591 16.8325C15.9569 17.329 16.0242 17.843 16.0607 18.3746C16.0549 19.023 16.1195 19.4786 16.2534 19.7415C16.3878 20.0043 16.6273 20.1795 16.9719 20.2672C17.4027 20.3609 18.4862 20.5066 20.2226 20.7052C21.9589 20.9039 23.0249 21.0148 23.4207 21.0382C23.574 20.9902 23.7405 20.8761 23.9201 20.6965C24.0997 20.5169 24.2136 20.3503 24.2618 20.1971C24.2409 19.832 24.1421 18.7747 23.964 17.0253C23.7858 15.2758 23.6514 14.1835 23.5609 13.7483C23.409 13.1291 22.9417 12.8254 22.159 12.8371C21.5164 12.8331 20.8739 12.7712 20.2314 12.6531C19.5889 12.5348 19.0164 12.3858 18.514 12.2062C18.2191 12.0923 17.9153 11.9346 17.6028 11.733C17.2902 11.5315 17.0566 11.3388 16.9018 11.1548L16.6915 10.9444L16.9719 10.7341C17.4816 10.2377 18.1971 9.84622 19.1186 9.56004C20.04 9.27384 21.0535 9.12776 22.159 9.12198C22.9417 9.13388 23.409 8.82989 23.5609 8.21072C23.6516 7.77554 23.7858 6.68324 23.964 4.93378C24.1421 3.18433 24.2414 2.12705 24.2618 1.76196C24.214 1.60858 24.0997 1.44216 23.9201 1.26255C23.7405 1.08295 23.574 0.969079 23.4207 0.920799C23.0249 0.943799 21.9589 1.05513 20.2226 1.25377C18.4863 1.45241 17.4027 1.59841 16.9719 1.69186C16.6273 1.77966 16.3878 1.95472 16.2534 2.21759C16.1191 2.48045 16.0548 2.93609 16.0607 3.58446C16.0238 4.11607 15.957 4.63003 15.8592 5.12654C15.7614 5.62306 15.6416 6.06701 15.5 6.45836C15.3861 6.78982 15.2283 7.12568 15.0268 7.46596C14.8252 7.80622 14.6325 8.05452 14.4485 8.21068L14.2382 8.42097L14.0279 8.21068C13.8439 8.05441 13.6511 7.80622 13.4496 7.46596C13.2481 7.12571 13.0904 6.78985 12.9764 6.45833C12.8347 6.06702 12.7151 5.62308 12.6172 5.12653C12.5195 4.63003 12.4522 4.11599 12.4157 3.58443C12.4215 2.93605 12.3568 2.48044 12.2229 2.21757C12.0886 1.95471 11.8491 1.77949 11.5044 1.69185C11.1481 1.59815 10.1259 1.45232 8.43775 1.25376C6.74963 1.05513 5.69236 0.944232 5.26595 0.920792C5.12573 0.932692 4.98553 0.979592 4.84542 1.06101L4.84534 1.06102Z" fill="black"/>
</g>
<defs>
<filter id="filter0_di" x="0.214478" y="0.920792" width="28.0474" height="28.1174" filterUnits="userSpaceOnUse" color-interpolation-filters="sRGB">
<feFlood flood-opacity="0" result="BackgroundImageFix"/>
<feColorMatrix in="SourceAlpha" type="matrix" values="0 0 0 0 0 0 0 0 0 0 0 0 0 0 0 0 0 0 127 0"/>
<feOffset dy="4"/>
<feGaussianBlur stdDeviation="2"/>
<feColorMatrix type="matrix" values="0 0 0 0 0 0 0 0 0 0 0 0 0 0 0 0 0 0 0.25 0"/>
<feBlend mode="normal" in2="BackgroundImageFix" result="effect1_dropShadow"/>
<feBlend mode="normal" in="SourceGraphic" in2="effect1_dropShadow" result="shape"/>
<feColorMatrix in="SourceAlpha" type="matrix" values="0 0 0 0 0 0 0 0 0 0 0 0 0 0 0 0 0 0 127 0" result="hardAlpha"/>
<feOffset dy="4"/>
<feGaussianBlur stdDeviation="3.5"/>
<feComposite in2="hardAlpha" operator="arithmetic" k2="-1" k3="1"/>
<feColorMatrix type="matrix" values="0 0 0 0 1 0 0 0 0 1 0 0 0 0 1 0 0 0 0.19 0"/>
<feBlend mode="normal" in2="shape" result="effect2_innerShadow"/>
</filter>
</defs>
</svg>
