<svg width="51" height="72" viewBox="0 0 51 72" fill="none" xmlns="http://www.w3.org/2000/svg">
<g filter="url(#filter0_di)">
<path d="M29.9662 0.02314V30.8412C29.9662 30.8412 29.9662 32.9186 29.9662 37.0733C32.7265 34.4117 35.8242 33.0484 39.2593 32.9835C41.4063 32.9835 43.2465 33.9248 44.78 35.8074C46.1295 37.5602 46.8349 39.5077 46.8963 41.65C46.9576 43.3378 46.5589 45.2853 45.7001 47.4925C45.3934 48.4013 44.7187 49.3751 43.6759 50.4138C42.8784 51.1928 42.0503 52.0042 41.1916 52.8482C36.6524 56.3537 32.1131 59.8917 27.5739 63.4621V0.02314H29.9662V0.02314ZM37.4191 39.2156C36.683 38.3067 35.7322 37.8523 34.5668 37.8523C33.0946 37.8523 31.8984 38.7287 30.9783 40.4814C30.3036 41.8447 29.9662 45.0581 29.9662 50.1217V58.496C30.0275 58.7556 31.7451 57.1652 35.1188 53.7246C36.9591 51.9069 38.1552 49.7646 38.7073 47.2978C38.9526 46.324 39.0753 45.3503 39.0753 44.3765C39.0753 42.2342 38.5232 40.5139 37.4191 39.2156Z" fill="black"/>
<path d="M6.91884 0.02314V30.8412C6.91884 30.8412 6.91884 32.9186 6.91884 37.0733C9.67918 34.4117 12.7769 33.0484 16.212 32.9835C18.3589 32.9835 20.1991 33.9248 21.7327 35.8074C23.0821 37.5602 23.7875 39.5077 23.8489 41.65C23.9102 43.3378 23.5115 45.2853 22.6528 47.4925C22.346 48.4013 21.6713 49.3751 20.6285 50.4138C19.8311 51.1928 19.003 52.0042 18.1442 52.8482C13.605 56.3537 9.06577 59.8917 4.52655 63.4621V0.02314H6.91884V0.02314ZM14.3718 39.2156C13.6357 38.3067 12.6849 37.8523 11.5194 37.8523C10.0472 37.8523 8.85107 38.7287 7.93097 40.4814C7.25621 41.8447 6.91884 45.0581 6.91884 50.1217V58.496C6.98018 58.7556 8.69772 57.1652 12.0715 53.7246C13.9117 51.9069 15.1078 49.7646 15.6599 47.2978C15.9053 46.324 16.0279 45.3503 16.028 44.3765C16.0279 42.2342 15.4759 40.5139 14.3718 39.2156Z" fill="black"/>
</g>
<defs>
<filter id="filter0_di" x="0.52655" y="0.02314" width="50.3758" height="71.439" filterUnits="userSpaceOnUse" color-interpolation-filters="sRGB">
<feFlood flood-opacity="0" result="BackgroundImageFix"/>
<feColorMatrix in="SourceAlpha" type="matrix" values="0 0 0 0 0 0 0 0 0 0 0 0 0 0 0 0 0 0 127 0"/>
<feOffset dy="4"/>
<feGaussianBlur stdDeviation="2"/>
<feColorMatrix type="matrix" values="0 0 0 0 0 0 0 0 0 0 0 0 0 0 0 0 0 0 0.25 0"/>
<feBlend mode="normal" in2="BackgroundImageFix" result="effect1_dropShadow"/>
<feBlend mode="normal" in="SourceGraphic" in2="effect1_dropShadow" result="shape"/>
<feColorMatrix in="SourceAlpha" type="matrix" values="0 0 0 0 0 0 0 0 0 0 0 0 0 0 0 0 0 0 127 0" result="hardAlpha"/>
<feOffset dy="4"/>
<feGaussianBlur stdDeviation="3.5"/>
<feComposite in2="hardAlpha" operator="arithmetic" k2="-1" k3="1"/>
<feColorMatrix type="matrix" values="0 0 0 0 1 0 0 0 0 1 0 0 0 0 1 0 0 0 0.19 0"/>
<feBlend mode="normal" in2="shape" result="effect2_innerShadow"/>
</filter>
</defs>
</svg>
