<svg width="29" height="72" viewBox="0 0 29 72" fill="none" xmlns="http://www.w3.org/2000/svg">
<g filter="url(#filter0_di)">
<path d="M7.08272 0.459862V31.278C7.08272 31.278 7.08272 33.3553 7.08272 37.51C9.84305 34.8484 12.9408 33.4852 16.3759 33.4202C18.5228 33.4202 20.363 34.3615 21.8965 36.2441C23.246 37.9969 23.9514 39.9444 24.0128 42.0867C24.0741 43.7745 23.6754 45.722 22.8166 47.9292C22.5099 48.8381 21.8352 49.8118 20.7924 50.8505C19.995 51.6295 19.1668 52.441 18.3081 53.2849C13.7689 56.7904 9.22965 60.3284 4.69043 63.8989V0.459862H7.08272V0.459862ZM14.5356 39.6523C13.7995 38.7435 12.8487 38.289 11.6833 38.289C10.2111 38.289 9.01495 39.1654 8.09484 40.9182C7.42009 42.2814 7.08272 45.4948 7.08272 50.5584V58.9327C7.14406 59.1923 8.86159 57.6019 12.2353 54.1613C14.0756 52.3436 15.2717 50.2013 15.8238 47.7345C16.0691 46.7607 16.1918 45.787 16.1918 44.8132C16.1918 42.6709 15.6398 40.9506 14.5356 39.6523Z" fill="black"/>
</g>
<defs>
<filter id="filter0_di" x="0.69043" y="0.459862" width="27.3285" height="71.439" filterUnits="userSpaceOnUse" color-interpolation-filters="sRGB">
<feFlood flood-opacity="0" result="BackgroundImageFix"/>
<feColorMatrix in="SourceAlpha" type="matrix" values="0 0 0 0 0 0 0 0 0 0 0 0 0 0 0 0 0 0 127 0"/>
<feOffset dy="4"/>
<feGaussianBlur stdDeviation="2"/>
<feColorMatrix type="matrix" values="0 0 0 0 0 0 0 0 0 0 0 0 0 0 0 0 0 0 0.25 0"/>
<feBlend mode="normal" in2="BackgroundImageFix" result="effect1_dropShadow"/>
<feBlend mode="normal" in="SourceGraphic" in2="effect1_dropShadow" result="shape"/>
<feColorMatrix in="SourceAlpha" type="matrix" values="0 0 0 0 0 0 0 0 0 0 0 0 0 0 0 0 0 0 127 0" result="hardAlpha"/>
<feOffset dy="4"/>
<feGaussianBlur stdDeviation="3.5"/>
<feComposite in2="hardAlpha" operator="arithmetic" k2="-1" k3="1"/>
<feColorMatrix type="matrix" values="0 0 0 0 1 0 0 0 0 1 0 0 0 0 1 0 0 0 0.19 0"/>
<feBlend mode="normal" in2="shape" result="effect2_innerShadow"/>
</filter>
</defs>
</svg>
