<svg width="67" height="174" viewBox="0 0 67 174" fill="none" xmlns="http://www.w3.org/2000/svg">
<g filter="url(#filter0_di)">
<path d="M37.377 91.5284C34.788 92.3734 32.6484 93.7995 30.958 95.8075C29.2674 97.8145 28.2373 100.007 27.8675 102.384C27.4977 104.761 27.8015 107.112 28.7788 109.436C29.7561 111.761 31.5919 113.636 34.286 115.063C34.92 115.063 35.316 115.327 35.475 115.855C35.633 116.383 35.395 116.647 34.762 116.647C32.173 116.119 29.9014 115.036 27.9468 113.399C24.3016 110.387 22.2942 106.505 21.9244 101.75C21.7131 99.3735 21.9376 97.0754 22.598 94.8564C23.2583 92.6374 24.1696 90.6035 25.3318 88.7545C26.7581 86.8005 28.4486 85.1095 30.4033 83.6835C30.5089 83.5775 30.8127 83.3405 31.3145 82.9705C31.8164 82.6005 32.305 82.2575 32.7805 81.9405C33.256 81.6235 33.969 81.1214 34.92 80.4344L31.9881 66.3295C29.3995 68.4955 26.8374 70.8855 24.3017 73.5005C21.7659 76.1155 19.4679 78.8765 17.4076 81.7815C15.3474 84.6875 13.6965 87.7645 12.455 91.0135C11.2136 94.2625 10.5929 97.6825 10.5929 101.275C10.5929 104.603 11.2928 107.733 12.6928 110.665C14.0927 113.597 15.9549 116.146 18.2793 118.311C20.6037 120.477 23.2847 122.181 26.3223 123.423C29.3599 124.664 32.4371 125.285 35.554 125.285C35.66 125.285 36.148 125.232 37.02 125.126C37.892 125.021 38.816 124.889 39.793 124.73C40.771 124.572 41.669 124.4 42.488 124.215C43.306 124.03 43.716 123.832 43.716 123.621L43.24 121.402C41.18 110.995 39.225 101.037 37.377 91.5284ZM40.15 91.2115L46.648 122.67C50.399 121.243 52.934 118.8 54.255 115.34C55.576 111.88 55.879 108.367 55.166 104.801C54.453 101.235 52.776 98.0785 50.134 95.3315C47.493 92.5845 44.165 91.2115 40.15 91.2115ZM31.8296 48.8174C33.467 47.9714 34.986 46.7045 36.386 45.0135C37.786 43.3235 39.08 41.5134 40.269 39.5854C41.457 37.6574 42.488 35.6895 43.359 33.6815C44.231 31.6745 44.931 29.8525 45.459 28.2145C46.04 26.4715 46.436 24.5165 46.648 22.3505C46.859 20.1845 46.516 18.3624 45.618 16.8824C44.984 15.5624 44.152 14.7965 43.122 14.5845C42.091 14.3735 41.061 14.4524 40.031 14.8224C39.001 15.1924 38.024 15.7865 37.099 16.6055C36.175 17.4245 35.501 18.1505 35.079 18.7845C33.916 20.8445 32.899 23.1425 32.0277 25.6785C31.156 28.2145 30.5617 30.8425 30.2448 33.5635C29.9278 36.2835 29.8882 38.8984 30.1259 41.4084C30.3636 43.9174 30.9315 46.3874 31.8296 48.8174ZM29.4524 51.2734C28.5543 47.7874 27.7619 44.3665 27.0751 41.0115C26.3883 37.6575 26.045 34.2105 26.045 30.6705C26.045 28.0825 26.2299 25.2425 26.5997 22.1525C26.9694 19.0625 27.643 16.0505 28.6203 13.1185C29.5976 10.1865 30.9447 7.55844 32.6616 5.23444C34.379 2.90944 36.663 1.21948 39.516 0.162476C39.78 0.0574756 40.044 0.00445557 40.308 0.00445557C40.678 0.00445557 41.114 0.215489 41.616 0.638489C42.118 1.06049 42.646 1.68149 43.201 2.50049C43.755 3.31949 44.244 4.16444 44.667 5.03644C45.089 5.90744 45.406 6.50246 45.618 6.81946C47.044 9.51346 48.087 12.3794 48.748 15.4164C49.408 18.4544 49.791 21.4784 49.897 24.4894C50.108 29.0334 49.857 33.5235 49.144 37.9615C48.431 42.3985 46.991 46.7305 44.825 50.9565C44.086 52.2245 43.333 53.5054 42.567 54.7994C41.801 56.0944 40.89 57.3485 39.833 58.5635C39.622 58.7755 39.239 59.1585 38.684 59.7125C38.129 60.2675 37.561 60.8354 36.98 61.4164C36.399 61.9974 35.884 62.5395 35.435 63.0405C34.986 63.5425 34.762 63.8465 34.762 63.9525L38.01 79.8005C38.031 79.9045 39.635 79.8005 39.635 79.8005C42.735 79.8395 46.017 80.3415 48.867 81.4645C51.614 82.7325 53.978 84.4755 55.959 86.6945C57.94 88.9135 59.524 91.4095 60.713 94.1825C61.902 96.9565 62.496 99.7694 62.496 102.622C62.496 105.474 62.073 108.38 61.228 111.338C59.062 116.938 55.602 121.085 50.848 123.779C50.319 124.096 49.566 124.453 48.589 124.849C47.612 125.245 47.229 125.866 47.44 126.711C48.708 132.467 49.566 136.427 50.016 138.597C50.465 140.767 50.795 143.567 51.006 146.997C51.217 150.277 50.649 153.227 49.302 155.867C47.955 158.517 46.146 160.668 43.874 162.328C41.603 163.998 39.529 164.967 37.654 165.267C35.778 165.557 34.497 165.698 33.811 165.698C31.4334 165.698 29.109 165.247 26.8374 164.347C24.0375 163.297 21.6867 161.687 19.7849 159.517C17.8831 157.347 16.9322 154.707 16.9322 151.597C16.9322 149.637 17.5001 147.627 18.6359 145.567C19.7717 143.507 21.2641 142.027 23.113 141.137C25.1733 140.077 27.0355 139.787 28.6996 140.257C30.3636 140.737 31.7371 141.637 32.8201 142.957C33.903 144.277 34.656 145.877 35.079 147.747C35.501 149.627 35.475 151.377 34.999 153.017C34.524 154.657 33.56 156.047 32.107 157.177C30.6542 158.317 28.6335 158.827 26.045 158.727C27.1015 160.627 28.5807 161.828 30.4825 162.328C32.3843 162.838 34.339 162.868 36.346 162.448C38.354 162.028 40.242 161.247 42.012 160.107C43.782 158.977 45.169 157.747 46.172 156.427C46.806 155.477 47.282 154.238 47.599 152.708C47.916 151.168 48.101 149.577 48.153 147.907C48.206 146.247 48.153 144.947 47.995 144.027C47.836 143.097 47.572 141.657 47.202 139.707C45.618 133.317 44.614 129.297 44.191 127.657C43.98 127.134 43.412 126.962 42.488 127.147C41.563 127.332 40.784 127.504 40.15 127.657C35.607 128.247 31.8032 127.977 28.7392 126.87C23.9847 125.602 19.7981 123.343 16.1794 120.094C12.5607 116.846 9.65522 112.91 7.46282 108.287C5.27052 103.665 4.17432 100.152 4.17432 97.7485C4.17432 95.3455 4.17432 93.8264 4.17432 93.1924C4.17432 88.9134 4.91392 84.8985 6.39312 81.1475C9.19292 75.2835 12.5079 69.8955 16.3379 64.9825C20.1679 60.0695 24.5394 55.4994 29.4524 51.2734Z" fill="black"/>
</g>
<defs>
<filter id="filter0_di" x="0.174316" y="0.00445557" width="66.3217" height="173.693" filterUnits="userSpaceOnUse" color-interpolation-filters="sRGB">
<feFlood flood-opacity="0" result="BackgroundImageFix"/>
<feColorMatrix in="SourceAlpha" type="matrix" values="0 0 0 0 0 0 0 0 0 0 0 0 0 0 0 0 0 0 127 0"/>
<feOffset dy="4"/>
<feGaussianBlur stdDeviation="2"/>
<feColorMatrix type="matrix" values="0 0 0 0 0 0 0 0 0 0 0 0 0 0 0 0 0 0 0.25 0"/>
<feBlend mode="normal" in2="BackgroundImageFix" result="effect1_dropShadow"/>
<feBlend mode="normal" in="SourceGraphic" in2="effect1_dropShadow" result="shape"/>
<feColorMatrix in="SourceAlpha" type="matrix" values="0 0 0 0 0 0 0 0 0 0 0 0 0 0 0 0 0 0 127 0" result="hardAlpha"/>
<feOffset dy="4"/>
<feGaussianBlur stdDeviation="3.5"/>
<feComposite in2="hardAlpha" operator="arithmetic" k2="-1" k3="1"/>
<feColorMatrix type="matrix" values="0 0 0 0 1 0 0 0 0 1 0 0 0 0 1 0 0 0 0.19 0"/>
<feBlend mode="normal" in2="shape" result="effect2_innerShadow"/>
</filter>
</defs>
</svg>
