<svg width="39" height="104" viewBox="0 0 39 104" fill="none" xmlns="http://www.w3.org/2000/svg">
<g filter="url(#filter0_di)">
<path fill-rule="evenodd" clip-rule="evenodd" d="M31.5685 0V71.2666C29.3765 69.7874 26.8894 69.0478 24.1073 69.0478C19.3018 69.0478 14.7491 70.8315 10.4495 74.399C6.14978 77.8795 4 81.882 4 86.4066C4 89.017 5.05383 91.1923 7.1615 92.9325C9.26917 94.5857 11.7141 95.4124 14.4962 95.4124C19.4703 95.4124 24.0229 93.8026 28.1539 90.5832C32.285 87.3638 34.3505 83.3177 34.3506 78.445V0H31.5685ZM23.3485 84.4489C18.7959 88.3644 14.2854 90.3222 9.81714 90.3222C8.46826 90.3222 7.79382 89.7566 7.79382 88.6254C7.79382 86.1891 10.4917 83.1437 15.8873 79.4892C21.3672 75.7477 25.6669 73.8769 28.7863 73.8769C29.798 73.8769 30.3038 74.486 30.3038 75.7041C30.3038 77.6184 27.9854 80.5333 23.3485 84.4489Z" fill="black"/>
</g>
<defs>
<filter id="filter0_di" x="0" y="0" width="38.3506" height="103.412" filterUnits="userSpaceOnUse" color-interpolation-filters="sRGB">
<feFlood flood-opacity="0" result="BackgroundImageFix"/>
<feColorMatrix in="SourceAlpha" type="matrix" values="0 0 0 0 0 0 0 0 0 0 0 0 0 0 0 0 0 0 127 0"/>
<feOffset dy="4"/>
<feGaussianBlur stdDeviation="2"/>
<feColorMatrix type="matrix" values="0 0 0 0 0 0 0 0 0 0 0 0 0 0 0 0 0 0 0.25 0"/>
<feBlend mode="normal" in2="BackgroundImageFix" result="effect1_dropShadow"/>
<feBlend mode="normal" in="SourceGraphic" in2="effect1_dropShadow" result="shape"/>
<feColorMatrix in="SourceAlpha" type="matrix" values="0 0 0 0 0 0 0 0 0 0 0 0 0 0 0 0 0 0 127 0" result="hardAlpha"/>
<feOffset dy="4"/>
<feGaussianBlur stdDeviation="3.5"/>
<feComposite in2="hardAlpha" operator="arithmetic" k2="-1" k3="1"/>
<feColorMatrix type="matrix" values="0 0 0 0 1 0 0 0 0 1 0 0 0 0 1 0 0 0 0.19 0"/>
<feBlend mode="normal" in2="shape" result="effect2_innerShadow"/>
</filter>
</defs>
</svg>
