<svg width="35" height="53" viewBox="0 0 35 53" fill="none" xmlns="http://www.w3.org/2000/svg">
<g filter="url(#filter0_di)">
<path d="M18.6152 8.32343C18.6158 9.24192 18.4354 10.1515 18.0843 11.0003C17.7332 11.849 17.2183 12.6202 16.5691 13.2699C15.9198 13.9196 15.1489 14.435 14.3004 14.7866C13.4519 15.1382 12.5424 15.3192 11.6239 15.3192C10.7054 15.3192 9.79593 15.1382 8.94742 14.7866C8.0989 14.435 7.32799 13.9196 6.67873 13.2699C6.02947 12.6202 5.51459 11.849 5.16351 11.0003C4.81244 10.1515 4.63204 9.24192 4.63263 8.32343C4.63204 7.40494 4.81244 6.49534 5.16351 5.6466C5.51459 4.79785 6.02947 4.02661 6.67873 3.37693C7.32799 2.72725 8.0989 2.21188 8.94742 1.86025C9.79593 1.50862 10.7054 1.32764 11.6239 1.32764C12.5424 1.32764 13.4519 1.50862 14.3004 1.86025C15.1489 2.21188 15.9198 2.72725 16.5691 3.37693C17.2183 4.02661 17.7332 4.79785 18.0843 5.6466C18.4354 6.49534 18.6158 7.40494 18.6152 8.32343V8.32343Z" fill="black" stroke="black" stroke-width="1.01745"/>
<path d="M17.1985 44.7936C17.1985 43.8136 28.8892 3.38632 28.8892 3.38632" stroke="black" stroke-width="3"/>
<path d="M11.1803 14.2801C16.6495 14.6545 26.8997 13.2705 28.7491 3.77135C26.3933 7.48489 26.3098 14.72 12.6133 11.5418" stroke="black" stroke-width="3"/>
</g>
<defs>
<filter id="filter0_di" x="0.123901" y="0.818909" width="34.2061" height="52.1544" filterUnits="userSpaceOnUse" color-interpolation-filters="sRGB">
<feFlood flood-opacity="0" result="BackgroundImageFix"/>
<feColorMatrix in="SourceAlpha" type="matrix" values="0 0 0 0 0 0 0 0 0 0 0 0 0 0 0 0 0 0 127 0"/>
<feOffset dy="4"/>
<feGaussianBlur stdDeviation="2"/>
<feColorMatrix type="matrix" values="0 0 0 0 0 0 0 0 0 0 0 0 0 0 0 0 0 0 0.25 0"/>
<feBlend mode="normal" in2="BackgroundImageFix" result="effect1_dropShadow"/>
<feBlend mode="normal" in="SourceGraphic" in2="effect1_dropShadow" result="shape"/>
<feColorMatrix in="SourceAlpha" type="matrix" values="0 0 0 0 0 0 0 0 0 0 0 0 0 0 0 0 0 0 127 0" result="hardAlpha"/>
<feOffset dy="4"/>
<feGaussianBlur stdDeviation="3.5"/>
<feComposite in2="hardAlpha" operator="arithmetic" k2="-1" k3="1"/>
<feColorMatrix type="matrix" values="0 0 0 0 1 0 0 0 0 1 0 0 0 0 1 0 0 0 0.19 0"/>
<feBlend mode="normal" in2="shape" result="effect2_innerShadow"/>
</filter>
</defs>
</svg>
