<svg width="42" height="77" viewBox="0 0 42 77" fill="none" xmlns="http://www.w3.org/2000/svg">
<g filter="url(#filter0_di)">
<path d="M18.9826 31.9896C18.9831 32.9081 18.8028 33.8177 18.4517 34.6665C18.1006 35.5152 17.5857 36.2864 16.9365 36.9361C16.2872 37.5858 15.5163 38.1012 14.6678 38.4528C13.8193 38.8044 12.9098 38.9854 11.9913 38.9854C11.0728 38.9854 10.1633 38.8044 9.31479 38.4528C8.46627 38.1012 7.69536 37.5858 7.0461 36.9361C6.39684 36.2864 5.88196 35.5152 5.53089 34.6665C5.17981 33.8177 4.99941 32.9081 5 31.9896C4.99941 31.0711 5.17981 30.1615 5.53089 29.3128C5.88196 28.464 6.39684 27.6928 7.0461 27.0431C7.69536 26.3934 8.46627 25.8781 9.31479 25.5264C10.1633 25.1748 11.0728 24.9938 11.9913 24.9938C12.9098 24.9938 13.8193 25.1748 14.6678 25.5264C15.5163 25.8781 16.2872 26.3934 16.9365 27.0431C17.5857 27.6928 18.1006 28.464 18.4517 29.3128C18.8028 30.1615 18.9831 31.0711 18.9826 31.9896V31.9896Z" fill="black" stroke="black" stroke-width="1.01745"/>
<path d="M17.5659 68.4598C17.5659 67.4798 29.2566 27.0525 29.2566 27.0525" stroke="black" stroke-width="3"/>
<path d="M11.5476 37.9463C17.0168 38.3207 27.267 36.9367 29.1164 27.4375C26.7606 31.1511 26.6771 38.3862 12.9806 35.208" stroke="black" stroke-width="3"/>
<path d="M25.7416 7.99128C25.7416 11.8525 22.6115 14.9826 18.7503 14.9826C14.8891 14.9826 11.759 11.8525 11.759 7.99128C11.759 4.1301 14.8891 1 18.7503 1C22.6115 1 25.7416 4.1301 25.7416 7.99128Z" fill="black" stroke="black" stroke-width="1.01745"/>
<path d="M29.1936 27.3982C29.1936 26.4181 36.0155 3.05417 36.0155 3.05417" stroke="black" stroke-width="3"/>
<path d="M18.3066 13.9479C23.7758 14.3223 34.0261 12.9384 35.8755 3.43919C33.5196 7.15274 33.4361 14.3878 19.7396 11.2096" stroke="black" stroke-width="3"/>
</g>
<defs>
<filter id="filter0_di" x="0.491211" y="0.491276" width="40.9641" height="76.1483" filterUnits="userSpaceOnUse" color-interpolation-filters="sRGB">
<feFlood flood-opacity="0" result="BackgroundImageFix"/>
<feColorMatrix in="SourceAlpha" type="matrix" values="0 0 0 0 0 0 0 0 0 0 0 0 0 0 0 0 0 0 127 0"/>
<feOffset dy="4"/>
<feGaussianBlur stdDeviation="2"/>
<feColorMatrix type="matrix" values="0 0 0 0 0 0 0 0 0 0 0 0 0 0 0 0 0 0 0.25 0"/>
<feBlend mode="normal" in2="BackgroundImageFix" result="effect1_dropShadow"/>
<feBlend mode="normal" in="SourceGraphic" in2="effect1_dropShadow" result="shape"/>
<feColorMatrix in="SourceAlpha" type="matrix" values="0 0 0 0 0 0 0 0 0 0 0 0 0 0 0 0 0 0 127 0" result="hardAlpha"/>
<feOffset dy="4"/>
<feGaussianBlur stdDeviation="3.5"/>
<feComposite in2="hardAlpha" operator="arithmetic" k2="-1" k3="1"/>
<feColorMatrix type="matrix" values="0 0 0 0 1 0 0 0 0 1 0 0 0 0 1 0 0 0 0.19 0"/>
<feBlend mode="normal" in2="shape" result="effect2_innerShadow"/>
</filter>
</defs>
</svg>
